<svg width="40" height="40" viewBox="0 0 40 40" fill="none" xmlns="http://www.w3.org/2000/svg">
<rect width="4" height="1" rx="0.5" transform="matrix(1 0 0 -1 11 29)" fill="white"/>
<path d="M35 19V32C35 32.5523 34.5523 33 34 33H6C5.44772 33 5 32.5523 5 32V19H35Z" fill="#FAFAFA" stroke="#1C1C1C" stroke-width="2"/>
<path d="M24 6C25.6569 6 27 7.34315 27 9V10H34C35.1046 10 36 10.8954 36 12V18H4V12C4 10.8954 4.89543 10 6 10H13V9C13 7.34315 14.3431 6 16 6H24ZM16 8C15.4477 8 15 8.44772 15 9V10H25V9C25 8.44772 24.5523 8 24 8H16Z" fill="#B5E034"/>
<path d="M27 10H26.9V10.1H27V10ZM36 12H36.1V12H36ZM36 18V18.1H36.1V18H36ZM4 18H3.9V18.1H4V18ZM4 12H3.9V12H4ZM13 10V10.1H13.1V10H13ZM15 10H14.9V10.1H15V10ZM25 10V10.1H25.1V10H25ZM24 6V6.1C25.6016 6.1 26.9 7.39837 26.9 9H27H27.1C27.1 7.28792 25.7121 5.9 24 5.9V6ZM27 9H26.9V10H27H27.1V9H27ZM27 10V10.1H34V10V9.9H27V10ZM34 10V10.1C35.0493 10.1 35.9 10.9507 35.9 12H36H36.1C36.1 10.8402 35.1598 9.9 34 9.9V10ZM36 12H35.9V18H36H36.1V12H36ZM36 18V17.9H4V18V18.1H36V18ZM4 18H4.1V12H4H3.9V18H4ZM4 12H4.1C4.1 10.9507 4.95066 10.1 6 10.1V10V9.9C4.8402 9.9 3.9 10.8402 3.9 12H4ZM6 10V10.1H13V10V9.9H6V10ZM13 10H13.1V9H13H12.9V10H13ZM13 9H13.1C13.1 7.39837 14.3984 6.1 16 6.1V6V5.9C14.2879 5.9 12.9 7.28792 12.9 9H13ZM16 6V6.1H24V6V5.9H16V6ZM16 8V7.9C15.3925 7.9 14.9 8.39249 14.9 9H15H15.1C15.1 8.50294 15.5029 8.1 16 8.1V8ZM15 9H14.9V10H15H15.1V9H15ZM15 10V10.1H25V10V9.9H15V10ZM25 10H25.1V9H25H24.9V10H25ZM25 9H25.1C25.1 8.39249 24.6075 7.9 24 7.9V8V8.1C24.4971 8.1 24.9 8.50294 24.9 9H25ZM24 8V7.9H16V8V8.1H24V8Z" fill="#1C1C1C"/>
<rect x="10.1" y="15.1" width="3.8" height="6.8" rx="0.9" fill="#B5E034" stroke="#1C1C1C" stroke-width="0.2"/>
<rect x="26.1" y="15.1" width="3.8" height="6.8" rx="0.9" fill="#B5E034" stroke="#1C1C1C" stroke-width="0.2"/>
</svg>
