<svg width="40" height="40" viewBox="0 0 40 40" fill="none" xmlns="http://www.w3.org/2000/svg">
<mask id="path-1-inside-1_64_794" fill="white">
<path d="M32 31C32 31 29 35 20 35C11 35 8 31 8 31V18.2998L19.5713 23.7959C19.8427 23.9248 20.1573 23.9248 20.4287 23.7959L32 18.2998V31Z"/>
</mask>
<path d="M32 31C32 31 29 35 20 35C11 35 8 31 8 31V18.2998L19.5713 23.7959C19.8427 23.9248 20.1573 23.9248 20.4287 23.7959L32 18.2998V31Z" fill="#F8F8F8"/>
<path d="M32 31L33.6 32.2L34 31.6667V31H32ZM8 31H6V31.6667L6.4 32.2L8 31ZM8 18.2998L8.85808 16.4932L6 15.1357V18.2998H8ZM19.5713 23.7959L18.7132 25.6025L18.7135 25.6026L19.5713 23.7959ZM20.4287 23.7959L21.2865 25.6026L21.2868 25.6025L20.4287 23.7959ZM32 18.2998H34V15.1357L31.1419 16.4932L32 18.2998ZM32 31C30.4 29.8 30.4008 29.7989 30.4017 29.7978C30.4019 29.7975 30.4027 29.7964 30.4032 29.7957C30.4043 29.7943 30.4053 29.793 30.4062 29.7917C30.4082 29.7892 30.4099 29.7869 30.4115 29.7848C30.4146 29.7807 30.4171 29.7776 30.4189 29.7753C30.4225 29.7707 30.4234 29.7697 30.4214 29.7722C30.4174 29.777 30.4021 29.7953 30.3748 29.8252C30.3203 29.8851 30.2178 29.9916 30.0619 30.1302C29.7508 30.4068 29.2235 30.8141 28.4338 31.2353C26.8656 32.0717 24.1916 33 20 33V35V37C24.8084 37 28.1344 35.9283 30.3162 34.7647C31.4015 34.1859 32.1867 33.5932 32.7194 33.1198C32.9853 32.8834 33.1875 32.6774 33.3322 32.5185C33.4045 32.4391 33.4625 32.3715 33.5069 32.3177C33.529 32.2908 33.5478 32.2674 33.5633 32.2477C33.5711 32.2378 33.578 32.2289 33.5841 32.221C33.5871 32.217 33.59 32.2132 33.5926 32.2097C33.594 32.208 33.5952 32.2063 33.5965 32.2047C33.5971 32.2039 33.598 32.2027 33.5983 32.2023C33.5991 32.2011 33.6 32.2 32 31ZM20 35V33C15.8084 33 13.1344 32.0717 11.5662 31.2353C10.7765 30.8141 10.2492 30.4068 9.9381 30.1302C9.78218 29.9916 9.6797 29.8851 9.62517 29.8252C9.5979 29.7953 9.58261 29.777 9.57864 29.7722C9.57665 29.7697 9.57749 29.7707 9.58108 29.7753C9.58287 29.7776 9.58535 29.7807 9.58851 29.7848C9.59009 29.7869 9.59184 29.7892 9.59375 29.7917C9.59471 29.793 9.59571 29.7943 9.59675 29.7957C9.59727 29.7964 9.59808 29.7975 9.59834 29.7978C9.59917 29.7989 9.6 29.8 8 31C6.4 32.2 6.40086 32.2011 6.40172 32.2023C6.40203 32.2027 6.40291 32.2039 6.40352 32.2047C6.40475 32.2063 6.40603 32.208 6.40735 32.2097C6.41 32.2132 6.41285 32.217 6.41591 32.221C6.42202 32.2289 6.42894 32.2378 6.43668 32.2477C6.45217 32.2674 6.47096 32.2908 6.49314 32.3177C6.53751 32.3715 6.59546 32.4391 6.6678 32.5185C6.81249 32.6774 7.0147 32.8834 7.28065 33.1198C7.81325 33.5932 8.59853 34.1859 9.68382 34.7647C11.8656 35.9283 15.1916 37 20 37V35ZM8 31H10V18.2998H8H6V31H8ZM8 18.2998L7.14192 20.1064L18.7132 25.6025L19.5713 23.7959L20.4294 21.9893L8.85808 16.4932L8 18.2998ZM19.5713 23.7959L18.7135 25.6026C19.5277 25.9892 20.4723 25.9892 21.2865 25.6026L20.4287 23.7959L19.5709 21.9892C19.8423 21.8603 20.1577 21.8603 20.4291 21.9892L19.5713 23.7959ZM20.4287 23.7959L21.2868 25.6025L32.8581 20.1064L32 18.2998L31.1419 16.4932L19.5706 21.9893L20.4287 23.7959ZM32 18.2998H30V31H32H34V18.2998H32Z" fill="#1C1C1C" mask="url(#path-1-inside-1_64_794)"/>
<mask id="path-3-inside-2_64_794" fill="white">
<path fill-rule="evenodd" clip-rule="evenodd" d="M35 15C35.5523 15 36 15.4477 36 16V21L36.8584 21.8584C36.9365 21.9365 36.9365 22.0635 36.8584 22.1416L35.1416 23.8584C35.0635 23.9365 34.9365 23.9365 34.8584 23.8584L33.1416 22.1416C33.0635 22.0635 33.0635 21.9365 33.1416 21.8584L34 21V16C34 15.4477 34.4477 15 35 15Z"/>
</mask>
<path fill-rule="evenodd" clip-rule="evenodd" d="M35 15C35.5523 15 36 15.4477 36 16V21L36.8584 21.8584C36.9365 21.9365 36.9365 22.0635 36.8584 22.1416L35.1416 23.8584C35.0635 23.9365 34.9365 23.9365 34.8584 23.8584L33.1416 22.1416C33.0635 22.0635 33.0635 21.9365 33.1416 21.8584L34 21V16C34 15.4477 34.4477 15 35 15Z" fill="#B5E034"/>
<path d="M36 16H36.2V16H36ZM36 21H35.8V21.0828L35.8586 21.1414L36 21ZM36.8584 21.8584L36.717 21.9998L36.8584 21.8584ZM36.8584 22.1416L36.717 22.0002L36.8584 22.1416ZM35.1416 23.8584L35.0002 23.717L35.1416 23.8584ZM34.8584 23.8584L34.9998 23.717L34.8584 23.8584ZM33.1416 22.1416L33.283 22.0002L33.1416 22.1416ZM33.1416 21.8584L33.283 21.9998L33.1416 21.8584ZM34 21L34.1414 21.1414L34.2 21.0828V21H34ZM35 15V15.2C35.4418 15.2 35.8 15.5582 35.8 16H36H36.2C36.2 15.3373 35.6627 14.8 35 14.8V15ZM36 16H35.8V21H36H36.2V16H36ZM36 21L35.8586 21.1414L36.717 21.9998L36.8584 21.8584L36.9998 21.717L36.1414 20.8586L36 21ZM36.8584 21.8584L36.717 21.9998V22.0002L36.8584 22.1416L36.9998 22.283C37.156 22.1268 37.156 21.8732 36.9998 21.717L36.8584 21.8584ZM36.8584 22.1416L36.717 22.0002L35.0002 23.717L35.1416 23.8584L35.283 23.9998L36.9998 22.283L36.8584 22.1416ZM35.1416 23.8584L35.0002 23.717H34.9998L34.8584 23.8584L34.717 23.9998C34.8732 24.156 35.1268 24.156 35.283 23.9998L35.1416 23.8584ZM34.8584 23.8584L34.9998 23.717L33.283 22.0002L33.1416 22.1416L33.0002 22.283L34.717 23.9998L34.8584 23.8584ZM33.1416 22.1416L33.283 22.0002V21.9998L33.1416 21.8584L33.0002 21.717C32.844 21.8732 32.844 22.1268 33.0002 22.283L33.1416 22.1416ZM33.1416 21.8584L33.283 21.9998L34.1414 21.1414L34 21L33.8586 20.8586L33.0002 21.717L33.1416 21.8584ZM34 21H34.2V16H34H33.8V21H34ZM34 16H34.2C34.2 15.5582 34.5582 15.2 35 15.2V15V14.8C34.3372 14.8 33.8 15.3373 33.8 16H34Z" fill="#1C1C1C" mask="url(#path-3-inside-2_64_794)"/>
<path d="M19.6143 5.29395C19.8584 5.17813 20.1416 5.17813 20.3857 5.29395L38.0557 13.6875C38.7403 14.013 38.7403 14.987 38.0557 15.3125L20.3857 23.7061C20.1416 23.8219 19.8584 23.8219 19.6143 23.7061L1.94434 15.3125C1.25966 14.987 1.25966 14.013 1.94434 13.6875L19.6143 5.29395Z" fill="#B5E034" stroke="#1C1C1C" stroke-width="0.2"/>
</svg>
