<svg width="40" height="40" viewBox="0 0 40 40" fill="none" xmlns="http://www.w3.org/2000/svg">
<mask id="path-1-outside-1_64_769" maskUnits="userSpaceOnUse" x="8" y="1" width="25" height="28" fill="black">
<rect fill="white" x="8" y="1" width="25" height="28"/>
<path d="M20.002 2C22.1782 2.45814 26.0727 6.00882 21.2627 13.6826C17.0826 20.3511 21.491 25.9383 23.5527 28H20.1172C17.2156 26.7783 14.7544 20.1409 18.7422 14.9424C25.1561 6.58119 22.2545 3.18355 20.002 2ZM22.668 13.0781C23.9372 12.3662 25.7563 12.0619 28.0557 12.7393C29.9219 13.2893 31.1177 14.4154 31.8252 15.5791C32.5218 16.7253 32.7585 17.93 32.6904 18.6816L32.6143 19.5195L31.915 19.0527C31.4342 18.7322 30.8152 18.3973 29.9688 18.2627C29.1221 18.1281 28.0094 18.1887 26.5361 18.7197C24.8422 19.3303 23.3656 19.0067 22.3184 18.3389C21.8 18.0081 21.3845 17.5911 21.0986 17.1602C21.0215 17.0438 20.9528 16.9227 20.8926 16.7998C21.9864 15.8099 24.7633 14.484 28.4443 15.3223C28.4204 15.3077 25.0038 13.2319 20.6543 15.9395C20.6524 15.8973 20.6509 15.8552 20.6523 15.8135C20.686 14.8835 21.4306 13.7724 22.668 13.0781ZM12.04 5.70312C13.3525 5.07233 15.0466 4.7721 16.7715 5.38965C18.8631 6.1386 20.0632 7.36173 20.627 8.59375C21.1751 9.79207 21.129 11.0396 20.6387 11.7656C20.5913 11.8357 20.5383 11.9016 20.4824 11.9648C18.2841 7.46349 14.3266 7.32792 14.3027 7.32715C17.4614 8.30891 19.2712 10.99 19.833 12.4482C19.4269 12.6374 18.9336 12.7077 18.3848 12.6133C17.4053 12.4446 16.2717 11.7656 15.0566 10.3994C13.9364 9.13976 12.9276 8.62589 12.1143 8.47363C11.3014 8.32161 10.6257 8.5201 10.1484 8.79004L9 9.44043L9.42871 8.19238C9.58581 7.73571 9.92882 7.26742 10.3672 6.84766C10.8119 6.42188 11.3835 6.01874 12.04 5.70312Z"/>
</mask>
<path d="M20.002 2C22.1782 2.45814 26.0727 6.00882 21.2627 13.6826C17.0826 20.3511 21.491 25.9383 23.5527 28H20.1172C17.2156 26.7783 14.7544 20.1409 18.7422 14.9424C25.1561 6.58119 22.2545 3.18355 20.002 2ZM22.668 13.0781C23.9372 12.3662 25.7563 12.0619 28.0557 12.7393C29.9219 13.2893 31.1177 14.4154 31.8252 15.5791C32.5218 16.7253 32.7585 17.93 32.6904 18.6816L32.6143 19.5195L31.915 19.0527C31.4342 18.7322 30.8152 18.3973 29.9688 18.2627C29.1221 18.1281 28.0094 18.1887 26.5361 18.7197C24.8422 19.3303 23.3656 19.0067 22.3184 18.3389C21.8 18.0081 21.3845 17.5911 21.0986 17.1602C21.0215 17.0438 20.9528 16.9227 20.8926 16.7998C21.9864 15.8099 24.7633 14.484 28.4443 15.3223C28.4204 15.3077 25.0038 13.2319 20.6543 15.9395C20.6524 15.8973 20.6509 15.8552 20.6523 15.8135C20.686 14.8835 21.4306 13.7724 22.668 13.0781ZM12.04 5.70312C13.3525 5.07233 15.0466 4.7721 16.7715 5.38965C18.8631 6.1386 20.0632 7.36173 20.627 8.59375C21.1751 9.79207 21.129 11.0396 20.6387 11.7656C20.5913 11.8357 20.5383 11.9016 20.4824 11.9648C18.2841 7.46349 14.3266 7.32792 14.3027 7.32715C17.4614 8.30891 19.2712 10.99 19.833 12.4482C19.4269 12.6374 18.9336 12.7077 18.3848 12.6133C17.4053 12.4446 16.2717 11.7656 15.0566 10.3994C13.9364 9.13976 12.9276 8.62589 12.1143 8.47363C11.3014 8.32161 10.6257 8.5201 10.1484 8.79004L9 9.44043L9.42871 8.19238C9.58581 7.73571 9.92882 7.26742 10.3672 6.84766C10.8119 6.42188 11.3835 6.01874 12.04 5.70312Z" fill="#B5E034"/>
<path d="M20.002 2L20.0432 1.80429L19.9089 2.17705L20.002 2ZM21.2627 13.6826L21.4322 13.7888L21.4322 13.7888L21.2627 13.6826ZM23.5527 28V28.2H24.0356L23.6942 27.8586L23.5527 28ZM20.1172 28L20.0396 28.1843L20.0768 28.2H20.1172V28ZM18.7422 14.9424L18.9009 15.0641V15.0641L18.7422 14.9424ZM22.668 13.0781L22.5701 12.9037L22.5701 12.9037L22.668 13.0781ZM28.0557 12.7393L28.1122 12.5474L28.1122 12.5474L28.0557 12.7393ZM31.8252 15.5791L31.9961 15.4752L31.9961 15.4752L31.8252 15.5791ZM32.6904 18.6816L32.8896 18.6997L32.8896 18.6997L32.6904 18.6816ZM32.6143 19.5195L32.5032 19.6859L32.783 19.8726L32.8134 19.5376L32.6143 19.5195ZM31.915 19.0527L32.0261 18.8864L32.026 18.8863L31.915 19.0527ZM29.9688 18.2627L30.0002 18.0652L30.0001 18.0652L29.9688 18.2627ZM26.5361 18.7197L26.4683 18.5316L26.4683 18.5316L26.5361 18.7197ZM22.3184 18.3389L22.2108 18.5075L22.2108 18.5075L22.3184 18.3389ZM21.0986 17.1602L20.9319 17.2707L20.932 17.2707L21.0986 17.1602ZM20.8926 16.7998L20.7584 16.6515L20.6467 16.7525L20.713 16.8878L20.8926 16.7998ZM28.4443 15.3223L28.3999 15.5173L28.5486 15.1516L28.4443 15.3223ZM20.6543 15.9395L20.4545 15.9483L20.4697 16.29L20.76 16.1092L20.6543 15.9395ZM20.6523 15.8135L20.4525 15.8062L20.4525 15.8064L20.6523 15.8135ZM12.04 5.70312L11.9534 5.52286L11.9534 5.52287L12.04 5.70312ZM16.7715 5.38965L16.8389 5.20136L16.8389 5.20135L16.7715 5.38965ZM20.627 8.59375L20.8088 8.51056L20.8088 8.51053L20.627 8.59375ZM20.6387 11.7656L20.8044 11.8776L20.8044 11.8776L20.6387 11.7656ZM20.4824 11.9648L20.3027 12.0526L20.4341 12.3216L20.6323 12.0973L20.4824 11.9648ZM14.3027 7.32715L14.3092 7.12725L14.2434 7.51814L14.3027 7.32715ZM19.833 12.4482L19.9174 12.6295L20.0868 12.5507L20.0196 12.3763L19.833 12.4482ZM18.3848 12.6133L18.3508 12.8104L18.3509 12.8104L18.3848 12.6133ZM15.0566 10.3994L14.9072 10.5323L14.9072 10.5323L15.0566 10.3994ZM12.1143 8.47363L12.1511 8.27705L12.151 8.27704L12.1143 8.47363ZM10.1484 8.79004L10.05 8.61595L10.0499 8.61601L10.1484 8.79004ZM9 9.44043L8.81085 9.37545L8.63943 9.87447L9.09856 9.61446L9 9.44043ZM9.42871 8.19238L9.23959 8.12732L9.23956 8.12741L9.42871 8.19238ZM10.3672 6.84766L10.2289 6.70319L10.2289 6.7032L10.3672 6.84766ZM20.002 2L19.9608 2.19571C20.9831 2.41093 22.4421 3.36562 23.0627 5.19955C23.6813 7.02725 23.4792 9.76984 21.0932 13.5764L21.2627 13.6826L21.4322 13.7888C23.8562 9.92161 24.1119 7.05196 23.4416 5.07133C22.7734 3.09694 21.1971 2.04721 20.0432 1.80429L20.002 2ZM21.2627 13.6826L21.0932 13.5764C18.9679 16.967 19.0232 20.0942 19.8775 22.6326C20.7287 25.162 22.3699 27.1 23.4113 28.1414L23.5527 28L23.6942 27.8586C22.6739 26.8383 21.08 24.9518 20.2566 22.5051C19.4362 20.0673 19.3774 17.0668 21.4322 13.7888L21.2627 13.6826ZM23.5527 28V27.8H20.1172V28V28.2H23.5527V28ZM20.1172 28L20.1948 27.8157C19.5172 27.5304 18.847 26.9195 18.2845 26.0654C17.7234 25.2135 17.2776 24.1315 17.0425 22.9242C16.5724 20.5108 16.9464 17.6119 18.9009 15.0641L18.7422 14.9424L18.5835 14.8207C16.5501 17.4713 16.1609 20.4904 16.6498 23.0007C16.8942 24.2553 17.3585 25.3867 17.9504 26.2854C18.5408 27.1818 19.2664 27.8588 20.0396 28.1843L20.1172 28ZM18.7422 14.9424L18.9009 15.0641C22.1197 10.868 23.0338 7.87709 22.821 5.75958C22.6069 3.62867 21.2585 2.43431 20.095 1.82295L20.002 2L19.9089 2.17705C20.9979 2.74924 22.2267 3.84548 22.423 5.79957C22.6207 7.76707 21.7786 10.6556 18.5835 14.8207L18.7422 14.9424ZM22.668 13.0781L22.7658 13.2526C23.9823 12.5702 25.7448 12.267 27.9991 12.9311L28.0557 12.7393L28.1122 12.5474C25.7678 11.8568 23.8921 12.1621 22.5701 12.9037L22.668 13.0781ZM28.0557 12.7393L27.9991 12.9311C29.8127 13.4656 30.9698 14.5572 31.6543 15.683L31.8252 15.5791L31.9961 15.4752C31.2655 14.2735 30.0311 13.1129 28.1122 12.5474L28.0557 12.7393ZM31.8252 15.5791L31.6543 15.683C32.3321 16.7982 32.5549 17.9607 32.4912 18.6636L32.6904 18.6816L32.8896 18.6997C32.9621 17.8993 32.7116 16.6524 31.9961 15.4752L31.8252 15.5791ZM32.6904 18.6816L32.4913 18.6635L32.4151 19.5014L32.6143 19.5195L32.8134 19.5376L32.8896 18.6997L32.6904 18.6816ZM32.6143 19.5195L32.7253 19.3532L32.0261 18.8864L31.915 19.0527L31.804 19.2191L32.5032 19.6859L32.6143 19.5195ZM31.915 19.0527L32.026 18.8863C31.5312 18.5565 30.8849 18.2059 30.0002 18.0652L29.9688 18.2627L29.9373 18.4602C30.7454 18.5888 31.3373 18.9079 31.8041 19.2191L31.915 19.0527ZM29.9688 18.2627L30.0001 18.0652C29.1151 17.9245 27.9682 17.991 26.4683 18.5316L26.5361 18.7197L26.6039 18.9079C28.0506 18.3865 29.129 18.3317 29.9374 18.4602L29.9688 18.2627ZM26.5361 18.7197L26.4683 18.5316C24.8361 19.1199 23.4239 18.8067 22.4259 18.1702L22.3184 18.3389L22.2108 18.5075C23.3072 19.2067 24.8484 19.5407 26.604 18.9079L26.5361 18.7197ZM22.3184 18.3389L22.4259 18.1703C21.9303 17.854 21.5353 17.4566 21.2653 17.0496L21.0986 17.1602L20.932 17.2707C21.2338 17.7257 21.6696 18.1622 22.2108 18.5075L22.3184 18.3389ZM21.0986 17.1602L21.2653 17.0496C21.1932 16.9409 21.1288 16.8274 21.0722 16.7118L20.8926 16.7998L20.713 16.8878C20.7767 17.018 20.8497 17.1467 20.9319 17.2707L21.0986 17.1602ZM20.8926 16.7998L21.0268 16.9481C22.0743 16.0001 24.7852 14.6941 28.3999 15.5173L28.4443 15.3223L28.4887 15.1273C24.7414 14.2739 21.8985 15.6197 20.7584 16.6515L20.8926 16.7998ZM28.4443 15.3223L28.5486 15.1516C28.4997 15.1217 24.9939 13.0025 20.5486 15.7697L20.6543 15.9395L20.76 16.1092C25.0137 13.4613 28.3412 15.4936 28.3401 15.493L28.4443 15.3223ZM20.6543 15.9395L20.8541 15.9306C20.8522 15.8885 20.8511 15.8535 20.8522 15.8205L20.6523 15.8135L20.4525 15.8064C20.4507 15.8569 20.4526 15.9061 20.4545 15.9483L20.6543 15.9395ZM20.6523 15.8135L20.8522 15.8207C20.8826 14.9817 21.5681 13.9246 22.7658 13.2525L22.668 13.0781L22.5701 12.9037C21.2931 13.6202 20.4894 14.7853 20.4525 15.8062L20.6523 15.8135ZM12.04 5.70312L12.1267 5.88339C13.4028 5.27008 15.0406 4.9824 16.7041 5.57794L16.7715 5.38965L16.8389 5.20135C15.0525 4.56179 13.3023 4.87457 11.9534 5.52286L12.04 5.70312ZM16.7715 5.38965L16.7041 5.57794C18.7515 6.31108 19.9065 7.49998 20.4451 8.67697L20.627 8.59375L20.8088 8.51053C20.2199 7.22348 18.9746 5.96612 16.8389 5.20136L16.7715 5.38965ZM20.627 8.59375L20.4451 8.67694C20.9743 9.834 20.9123 11.0031 20.4729 11.6537L20.6387 11.7656L20.8044 11.8776C21.3457 11.0761 21.3758 9.75015 20.8088 8.51056L20.627 8.59375ZM20.6387 11.7656L20.473 11.6536C20.4317 11.7147 20.3844 11.7737 20.3326 11.8324L20.4824 11.9648L20.6323 12.0973C20.6922 12.0295 20.7509 11.9567 20.8044 11.8776L20.6387 11.7656ZM20.4824 11.9648L20.6621 11.8771C18.415 7.27585 14.3608 7.12893 14.3092 7.12725L14.3027 7.32715L14.2962 7.52704C14.2924 7.52692 18.1531 7.65112 20.3027 12.0526L20.4824 11.9648ZM14.3027 7.32715L14.2434 7.51814C17.3268 8.47651 19.0993 11.1002 19.6464 12.5201L19.833 12.4482L20.0196 12.3763C19.443 10.8798 17.5959 8.1413 14.3621 7.13616L14.3027 7.32715ZM19.833 12.4482L19.7486 12.2669C19.3824 12.4375 18.9308 12.5043 18.4187 12.4162L18.3848 12.6133L18.3509 12.8104C18.9365 12.9111 19.4714 12.8373 19.9174 12.6295L19.833 12.4482ZM18.3848 12.6133L18.4187 12.4162C17.501 12.2581 16.405 11.6145 15.2061 10.2665L15.0566 10.3994L14.9072 10.5323C16.1383 11.9166 17.3096 12.6311 18.3508 12.8104L18.3848 12.6133ZM15.0566 10.3994L15.2061 10.2665C14.0641 8.98233 13.0181 8.43935 12.1511 8.27705L12.1143 8.47363L12.0775 8.67022C12.8371 8.81243 13.8088 9.29719 14.9072 10.5323L15.0566 10.3994ZM12.1143 8.47363L12.151 8.27704C11.2844 8.11498 10.5612 8.32682 10.05 8.61595L10.1484 8.79004L10.2469 8.96413C10.6902 8.71339 11.3184 8.52825 12.0775 8.67022L12.1143 8.47363ZM10.1484 8.79004L10.0499 8.61601L8.90144 9.2664L9 9.44043L9.09856 9.61446L10.247 8.96407L10.1484 8.79004ZM9 9.44043L9.18915 9.5054L9.61786 8.25736L9.42871 8.19238L9.23956 8.12741L8.81085 9.37545L9 9.44043ZM9.42871 8.19238L9.61783 8.25744C9.76084 7.84172 10.0802 7.39941 10.5055 6.99211L10.3672 6.84766L10.2289 6.7032C9.77749 7.13543 9.41078 7.62969 9.23959 8.12732L9.42871 8.19238ZM10.3672 6.84766L10.5055 6.99212C10.9346 6.58133 11.4886 6.19012 12.1267 5.88338L12.04 5.70312L11.9534 5.52287C11.2784 5.84736 10.6892 6.26243 10.2289 6.70319L10.3672 6.84766Z" fill="#1C1C1C" mask="url(#path-1-outside-1_64_769)"/>
<path d="M9.33203 23H30.668C31.281 23 31.7496 23.5465 31.6562 24.1523L29.8066 36.1523C29.7315 36.6399 29.3117 36.9998 28.8184 37H11.1816C10.6883 36.9998 10.2685 36.6399 10.1934 36.1523L8.34375 24.1523C8.25619 23.5844 8.6625 23.0681 9.21875 23.0059L9.33203 23Z" fill="#1C1C1C"/>
<path d="M9.33203 23H30.668C31.281 23 31.7496 23.5465 31.6562 24.1523L29.8066 36.1523C29.7315 36.6399 29.3117 36.9998 28.8184 37H11.1816C10.6883 36.9998 10.2685 36.6399 10.1934 36.1523L8.34375 24.1523C8.25619 23.5844 8.6625 23.0681 9.21875 23.0059L9.33203 23Z" fill="#F8F8F8"/>
<path d="M9.33203 23H30.668C31.281 23 31.7496 23.5465 31.6562 24.1523L29.8066 36.1523C29.7315 36.6399 29.3117 36.9998 28.8184 37H11.1816C10.6883 36.9998 10.2685 36.6399 10.1934 36.1523L8.34375 24.1523C8.25619 23.5844 8.6625 23.0681 9.21875 23.0059L9.33203 23Z" stroke="#1C1C1C" stroke-width="2"/>
<rect width="4" height="2" rx="1" transform="matrix(1 0 0 -1 12 28)" fill="#1C1C1C"/>
</svg>
